<?xml version="1.0"?>
<svg xmlns="http://www.w3.org/2000/svg" height="512px" viewBox="0 0 496 496" width="512px" class=""><g><path d="m472 440h-8v-8h-16c0-17.648438-14.351562-32-32-32h-112v-283.3125l-60.6875-60.6875h-32.945312l7.191406-17.367188-14.78125-6.128906-18.371094 44.34375 14.785156 6.128906 4.542969-10.976562h28.265625v56h56v272h-8c-8.824219 0-16-7.175781-16-16h-16c0 17.648438 14.351562 32 32 32h136c8.824219 0 16 7.175781 16 16h-258.214844l-40 24h-117.785156v-392h80.945312l7.863282 18.984375 14.785156-6.128906-18.371094-44.34375-14.78125 6.128906 3.878906 9.359375h-90.320312v424h133.785156l40 24h290.214844v-8h8c13.230469 0 24-10.769531 24-24s-10.769531-24-24-24zm-224-356.6875 28.6875 28.6875h-28.6875zm-64 364.6875h232v32h-232zm-16 6.128906v19.742188l-16.449219-9.871094zm280 25.871094h-16v-32h16zm24-8h-8v-16h8c4.40625 0 8 3.585938 8 8s-3.59375 8-8 8zm0 0" data-original="#000000" class="active-path" data-old_color="#69d196" fill="#69d196"/><path d="m64.433594 167.183594c-3.105469 31.695312 10.46875 61.695312 36.292968 80.25 2.050782 1.46875 3.273438 3.863281 3.273438 6.398437v18.167969c0 26.472656 21.527344 48 48 48s48-21.527344 48-48v-18.167969c0-2.535156 1.191406-4.902343 3.199219-6.335937 23.039062-16.519532 36.800781-43.25 36.800781-71.496094 0-24.992188-10.6875-48.894531-29.320312-65.574219-18.609376-16.664062-43.632813-24.609375-68.6875-21.867187-40.929688 4.519531-73.550782 37.59375-77.558594 78.625zm55.566406 88.816406h64v16h-64zm8-48h-4c-2.207031 0-4-1.792969-4-4s1.792969-4 4-4 4 1.792969 4 4zm32 32h-16v-16h16zm-8 64c-11.792969 0-22-6.480469-27.550781-16h55.09375c-5.542969 9.519531-15.75 16-27.542969 16zm-8.246094-199.535156c2.796875-.3125 5.582032-.464844 8.34375-.464844 17.765625 0 34.535156 6.367188 47.910156 18.34375 15.25 13.648438 23.992188 33.207031 23.992188 53.65625 0 23.105469-11.265625 44.96875-30.121094 58.488281-2.109375 1.511719-3.808594 3.441407-5.285156 5.511719h-12.59375v-16h4c11.023438 0 20-8.976562 20-20s-8.976562-20-20-20-20 8.976562-20 20v4h-16v-4c0-11.023438-8.976562-20-20-20s-20 8.976562-20 20 8.976562 20 20 20h4v16h-12.609375c-1.496094-2.089844-3.199219-4.023438-5.335937-5.558594-21.144532-15.183594-32.246094-39.746094-29.703126-65.699218 3.28125-33.550782 29.945313-60.582032 63.402344-64.277344zm32.246094 103.535156v-4c0-2.207031 1.792969-4 4-4s4 1.792969 4 4-1.792969 4-4 4zm0 0" data-original="#000000" class="active-path" data-old_color="#69d196" fill="#69d196"/><path d="m192 176h16c0-15.910156-6.808594-31.121094-18.664062-41.734375l-10.671876 11.917969c8.480469 7.585937 13.335938 18.457031 13.335938 29.816406zm0 0" data-original="#000000" class="active-path" data-old_color="#69d196" fill="#69d196"/><path d="m170.664062 123.183594c-5.984374-2.113282-12.257812-3.183594-18.664062-3.183594v16c4.585938 0 9.0625.769531 13.335938 2.273438zm0 0" data-original="#000000" class="active-path" data-old_color="#69d196" fill="#69d196"/><path d="m144 0h16v72h-16zm0 0" data-original="#000000" class="active-path" data-old_color="#69d196" fill="#69d196"/><path d="m74.191406 9.074219 14.78125-6.125 6.125 14.777343-14.78125 6.125zm0 0" data-original="#000000" class="active-path" data-old_color="#69d196" fill="#69d196"/><path d="m208.898438 17.730469 6.125-14.777344 14.78125 6.121094-6.125 14.78125zm0 0" data-original="#000000" class="active-path" data-old_color="#69d196" fill="#69d196"/><path d="m32 336h16v16h-16zm0 0" data-original="#000000" class="active-path" data-old_color="#69d196" fill="#69d196"/><path d="m64 336h160v16h-160zm0 0" data-original="#000000" class="active-path" data-old_color="#69d196" fill="#69d196"/><path d="m32 368h16v16h-16zm0 0" data-original="#000000" class="active-path" data-old_color="#69d196" fill="#69d196"/><path d="m64 368h160v16h-160zm0 0" data-original="#000000" class="active-path" data-old_color="#69d196" fill="#69d196"/><path d="m32 400h16v16h-16zm0 0" data-original="#000000" class="active-path" data-old_color="#69d196" fill="#69d196"/><path d="m64 400h160v16h-160zm0 0" data-original="#000000" class="active-path" data-old_color="#69d196" fill="#69d196"/></g> </svg>
