<?xml version="1.0"?>
<svg xmlns="http://www.w3.org/2000/svg" viewBox="0 -10 512 511" width="512px" height="512px"><g><path d="m173.328125 120.5c0 20.679688 16.824219 37.5 37.5 37.5 20.679687 0 37.5-16.820312 37.5-37.5s-16.820313-37.5-37.5-37.5c-20.675781 0-37.5 16.820312-37.5 37.5zm37.5-17.5c9.652344 0 17.5 7.851562 17.5 17.5s-7.847656 17.5-17.5 17.5c-9.648437 0-17.5-7.851562-17.5-17.5s7.851563-17.5 17.5-17.5zm0 0" data-original="#000000" class="active-path" data-old_color="#000000" fill="#69D196"/><path d="m330.828125 220.5c16.542969 0 30-13.457031 30-30s-13.457031-30-30-30c-16.539063 0-30 13.457031-30 30s13.460937 30 30 30zm0-40c5.515625 0 10 4.484375 10 10s-4.484375 10-10 10c-5.511719 0-10-4.484375-10-10s4.488281-10 10-10zm0 0" data-original="#000000" class="active-path" data-old_color="#000000" fill="#69D196"/><path d="m265.058594 356.359375c-.25-.597656-.558594-1.179687-.917969-1.730469-.359375-.539062-.78125-1.058594-1.242187-1.519531-.457032-.460937-.96875-.878906-1.519532-1.238281-.539062-.359375-1.117187-.671875-1.71875-.921875-.609375-.25-1.238281-.4375-1.878906-.570313-1.292969-.257812-2.609375-.257812-3.902344 0-.640625.132813-1.269531.320313-1.867187.570313-.613281.25-1.191407.5625-1.730469.921875-.550781.359375-1.0625.777344-1.519531 1.238281-.460938.460937-.882813.980469-1.242188 1.519531-.371093.550782-.667969 1.132813-.917969 1.730469-.25.601563-.453124 1.230469-.570312 1.871094-.132812.648437-.199219 1.300781-.199219 1.949219 0 .660156.066407 1.308593.199219 1.960937.117188.640625.320312 1.269531.570312 1.871094.25.597656.546876 1.179687.917969 1.726562.359375.542969.78125 1.050781 1.242188 1.511719.457031.46875.96875.878906 1.519531 1.25.539062.359375 1.117188.671875 1.730469.921875.597656.25 1.226562.4375 1.867187.566406.640625.132813 1.300782.203125 1.949219.203125.652344 0 1.3125-.070312 1.953125-.203125.640625-.128906 1.269531-.316406 1.878906-.566406.601563-.25 1.179688-.5625 1.71875-.921875.550782-.371094 1.0625-.78125 1.519532-1.25.460937-.460938.882812-.96875 1.242187-1.511719.359375-.546875.667969-1.128906.917969-1.726562.25-.601563.453125-1.230469.582031-1.871094.128906-.652344.1875-1.300781.1875-1.960937 0-.648438-.058594-1.300782-.1875-1.949219-.128906-.640625-.332031-1.269531-.582031-1.871094zm0 0" data-original="#000000" class="active-path" data-old_color="#000000" fill="#69D196"/><path d="m118.019531 294.488281c.25.601563.550781 1.183594.910157 1.730469.371093.542969.789062 1.0625 1.25 1.519531.460937.460938.96875.882813 1.519531 1.242188.542969.359375 1.121093.667969 1.722656.917969.609375.25 1.238281.441406 1.878906.570312.640625.132812 1.300781.203125 1.949219.203125s1.3125-.070313 1.949219-.203125c.640625-.128906 1.273437-.320312 1.871093-.570312.609376-.25 1.191407-.558594 1.730469-.917969.550781-.359375 1.058594-.78125 1.519531-1.242188.460938-.457031.878907-.976562 1.238282-1.519531.363281-.546875.671875-1.128906.921875-1.730469.25-.597656.449219-1.226562.578125-1.867187.121094-.640625.191406-1.300782.191406-1.949219 0-.660156-.070312-1.3125-.191406-1.960937-.128906-.640626-.328125-1.261719-.578125-1.871094-.25-.601563-.558594-1.179688-.921875-1.71875-.359375-.550782-.777344-1.0625-1.238282-1.519532-.460937-.472656-.96875-.882812-1.519531-1.25-.539062-.363281-1.121093-.671874-1.730469-.921874-.601562-.25-1.230468-.441407-1.871093-.570313-1.289063-.257813-2.617188-.257813-3.898438 0-.640625.128906-1.269531.320313-1.878906.570313-.601563.25-1.179687.558593-1.722656.921874-.550781.367188-1.058594.777344-1.519531 1.25-.460938.457032-.878907.96875-1.25 1.519532-.359376.539062-.660157 1.117187-.910157 1.71875-.25.609375-.449219 1.230468-.578125 1.871094-.132812.648437-.191406 1.300781-.191406 1.960937 0 .648437.0625 1.308594.191406 1.949219s.328125 1.269531.578125 1.867187zm0 0" data-original="#000000" class="active-path" data-old_color="#000000" fill="#69D196"/><path d="m469.910156.5h-427.832031c-23.199219 0-42.078125 18.878906-42.078125 42.078125v315.84375c0 23.199219 18.878906 42.078125 42.078125 42.078125h125.074219l-9.566406 71h-21.757813c-5.519531 0-10 4.476562-10 10s4.480469 10 10 10h240c5.523437 0 10-4.476562 10-10s-4.476563-10-10-10h-21.753906l-9.566407-71h125.402344c23.207032 0 42.089844-18.878906 42.089844-42.078125v-315.84375c0-23.199219-18.882812-42.078125-42.089844-42.078125zm-251.570312 23.113281c2.007812 2.003907 3.109375 4.671875 3.109375 7.507813v9.480468c0 4.558594 3.089843 8.542969 7.507812 9.683594 6.605469 1.699219 12.886719 4.304688 18.664063 7.738282 3.929687 2.339843 8.949218 1.710937 12.1875-1.527344l6.699218-6.710938c4.144532-4.140625 10.890626-4.140625 15.042969.003906 1.144531 1.144532 1.988281 2.492188 2.515625 4 1.355469 3.890626.386719 8.121094-2.511718 11.023438l-6.71875 6.710938c-3.238282 3.234374-3.871094 8.253906-1.53125 12.1875 3.4375 5.777343 6.039062 12.058593 7.742187 18.664062 1.136719 4.417969 5.121094 7.503906 9.683594 7.503906h9.480469c3.363281 0 6.441406 1.589844 8.40625 4.128906-1.761719 3.394532-2.722657 7.175782-2.785157 11.089844-1.203125.460938-2.390625.957032-3.566406 1.480469-4.6875-4.542969-10.847656-7.039063-17.394531-7.039063-6.679688 0-12.960938 2.601563-17.683594 7.320313-9.652344 9.65625-9.746094 25.304687-.277344 35.078125-.527344 1.171875-1.019531 2.363281-1.480468 3.566406-6.535157.101563-12.660157 2.699219-17.253907 7.3125-3.746093 3.730469-6.164062 8.4375-7.007812 13.554688-3.898438 1.800781-7.988281 3.257812-12.214844 4.347656-4.417969 1.136719-7.503906 5.121094-7.503906 9.679688v9.480468c0 5.855469-4.765625 10.621094-10.621094 10.621094-2.835937 0-5.5-1.105469-7.507813-3.113281-2.007812-2.003907-3.109374-4.671875-3.109374-7.507813v-9.480468c0-4.558594-3.089844-8.542969-7.507813-9.683594-6.605469-1.699219-12.886719-4.304688-18.664063-7.742188-1.589843-.941406-3.351562-1.402344-5.105468-1.402344-2.589844 0-5.152344 1.003907-7.078125 2.933594l-6.703125 6.710938c-4.132813 4.125-10.847656 4.140625-15 .035156-.011719-.011719-.023438-.023438-.035156-.035156-4.140626-4.148438-4.140626-10.894532-.011719-15.027344l6.722656-6.710938c3.234375-3.234374 3.867187-8.253906 1.527344-12.1875-3.433594-5.777343-6.039063-12.058593-7.742188-18.664062-1.136719-4.417969-5.121093-7.503906-9.683593-7.503906h-9.480469c-5.855469 0-10.617188-4.765625-10.617188-10.621094 0-2.835938 1.105469-5.503906 3.109375-7.507812 2.007813-2.007813 4.671875-3.113282 7.507813-3.113282h9.480469c4.5625 0 8.546874-3.085937 9.683593-7.503906 1.703125-6.605469 4.308594-12.886719 7.742188-18.664062 2.339843-3.933594 1.707031-8.953126-1.527344-12.1875l-6.710937-6.699219c-2.910157-2.914063-3.878907-7.144531-2.523438-11.03125.527344-1.511719 1.375-2.859375 2.523438-4.007813 4.144531-4.140625 10.890624-4.140625 15.027343-.007812l6.710938 6.71875c3.234375 3.238281 8.253906 3.867187 12.183593 1.53125 5.78125-3.4375 12.0625-6.042969 18.664063-7.742188 4.417969-1.136718 7.507813-5.121094 7.507813-9.683594v-9.480468c0-5.855469 4.765624-10.621094 10.621093-10.621094 2.832031 0 5.5 1.105469 7.507813 3.113281zm99.988281 118.460938c4.417969-1.140625 7.5-5.125 7.5-9.683594v-6.890625c0-1.308594.503906-2.539062 1.410156-3.46875.007813-.003906.007813-.011719.015625-.015625 0-.003906.003906-.003906.007813-.007813.546875-.5625 1.738281-1.507812 3.566406-1.507812 1.332031 0 2.578125.519531 3.542969 1.484375.941406.9375 1.457031 2.1875 1.457031 3.515625v6.890625c0 4.558594 3.085937 8.542969 7.5 9.683594 4.550781 1.171875 8.878906 2.96875 12.867187 5.335937 3.929688 2.332032 8.941407 1.703125 12.175782-1.527344l4.878906-4.882812c1.953125-1.949219 5.128906-1.949219 7.078125 0 1.269531 1.273438 1.460937 2.765625 1.460937 3.539062 0 .777344-.1875 2.269532-1.460937 3.539063l-4.878906 4.878906c-3.234375 3.230469-3.863281 8.246094-1.53125 12.175781 2.367187 3.988282 4.164062 8.320313 5.339843 12.867188 1.140626 4.414062 5.121094 7.5 9.683594 7.5h6.886719c2.757813 0 5 2.242188 5 5 0 1.332031-.515625 2.578125-1.480469 3.542969-.542968.542969-1.722656 1.457031-3.519531 1.457031h-6.886719c-4.5625 0-8.542968 3.085938-9.683594 7.5-1.175781 4.546875-2.972656 8.878906-5.339843 12.867188-2.332031 3.933593-1.703125 8.941406 1.53125 12.175781l4.878906 4.878906c1.949219 1.953125 1.949219 5.125 0 7.078125-1.269531 1.269531-2.761719 1.460938-3.539063 1.460938-.777343 0-2.269531-.191407-3.539062-1.460938l-4.878906-4.878906c-3.234375-3.234375-8.246094-3.859375-12.175782-1.53125-3.988281 2.371094-8.316406 4.164062-12.867187 5.339844-4.414063 1.136718-7.5 5.121093-7.5 9.679687v6.890625c0 2.757812-2.242187 5-5 5-1.792969 0-2.972656-.914062-3.542969-1.484375-.9375-.9375-1.457031-2.183594-1.457031-3.515625v-6.890625c0-4.558594-3.085937-8.539063-7.5-9.679687-4.546875-1.175782-8.875-2.972657-12.867187-5.339844-3.929688-2.332032-8.941407-1.703125-12.171876 1.53125l-4.878906 4.878906c-1.953125 1.953125-5.128906 1.949219-7.082031 0-1.269531-1.269531-1.460937-2.761719-1.460937-3.539062 0-.777344.191406-2.269532 1.460937-3.539063l4.882813-4.878906c3.230468-3.230469 3.859374-8.242188 1.527343-12.175781-2.367187-3.988282-4.164062-8.320313-5.335937-12.867188-1.140625-4.414062-5.125-7.5-9.683594-7.5h-6.890625c-2.480469 0-4.605469-1.84375-4.945313-4.289062 0-.011719-.003906-.023438-.003906-.03125-.003906-.023438-.003906-.042969-.007812-.0625-.027344-.195313-.042969-.394532-.042969-.617188 0-1.332031.519531-2.578125 1.484375-3.542969.9375-.9375 2.183594-1.457031 3.515625-1.457031h6.890625c4.558594 0 8.542969-3.085938 9.683594-7.5 1.171875-4.546875 2.96875-8.878906 5.335937-12.867188 2.332031-3.933593 1.703125-8.945312-1.527343-12.175781l-4.882813-4.878906c-1.949219-1.949219-1.949219-5.125 0-7.074219 1.273437-1.273437 2.765625-1.464844 3.539063-1.464844.777343 0 2.269531.191407 3.539062 1.460938l4.882812 4.878906c3.230469 3.234375 8.242188 3.859375 12.171876 1.53125 3.992187-2.367187 8.320312-4.164062 12.867187-5.335937zm-276.25-121.574219h140.03125c-1.226563 3.308594-1.898437 6.886719-1.898437 10.621094v2.070312c-3.230469 1.132813-6.386719 2.4375-9.453126 3.917969l-1.472656-1.472656c-11.933594-11.925781-31.363281-11.925781-43.316406.011719-1.496094 1.496093-2.804688 3.121093-3.945312 4.851562h-59.683594c-11.628906 0-21.089844 9.457031-21.089844 21.078125v217.84375c0 11.621094 9.460938 21.078125 21.089844 21.078125h24.578125c5.519531 0 10-4.476562 10-10s-4.480469-10-10-10h-24.578125c-.601563 0-1.089844-.484375-1.089844-1.078125v-217.84375c0-.59375.488281-1.078125 1.089844-1.078125h54.875c.734375 6.859375 3.738281 13.4375 8.757812 18.464844l1.46875 1.464844c-1.480468 3.066406-2.789062 6.222656-3.917968 9.449218h-2.074219c-8.175781 0-15.867188 3.1875-21.648438 8.96875-5.785156 5.785156-8.96875 13.476563-8.96875 21.652344 0 16.882812 13.734375 30.621094 30.617188 30.621094h2.074219c1.128906 3.226562 2.4375 6.382812 3.917968 9.449218l-1.476562 1.472657c-11.90625 11.921875-11.925782 31.304687-.054688 43.25.023438.023437.050782.050781.074219.074219 11.9375 11.921874 31.363281 11.925781 43.3125-.011719l1.460937-1.464844c3.066407 1.480469 6.222657 2.789063 9.453126 3.917969v2.074218c0 8.175782 3.183593 15.867188 8.96875 21.648438 5.785156 5.785156 13.472656 8.96875 21.648437 8.96875 16.886719 0 30.621094-13.734375 30.621094-30.617188v-2.074218c1.613281-.566406 3.203125-1.191406 4.777343-1.84375 4.539063 5.730468 11.511719 9.410156 19.203126 9.53125.460937 1.203125.953124 2.394531 1.480468 3.566406-4.542968 4.6875-7.039062 10.847656-7.039062 17.398438 0 6.679687 2.597656 12.960937 7.320312 17.679687 9.652344 9.65625 25.304688 9.75 35.074219.28125 1.175781.523437 2.363281 1.019531 3.566406 1.480469.105469 6.535156 2.699219 12.660156 7.3125 17.257812 4.71875 4.734375 11 7.339844 17.683594 7.339844 13.652344 0 24.785156-10.996094 25-24.597656 1.203125-.460938 2.394531-.957032 3.566406-1.480469 4.6875 4.542969 10.847657 7.039063 17.394531 7.039063 6.683594 0 12.960938-2.601563 17.683594-7.320313 9.652344-9.65625 9.746094-25.304687.28125-35.078125.523438-1.171875 1.015625-2.363281 1.476563-3.566406 6.535156-.101563 12.660156-2.695313 17.257812-7.308594 4.734375-4.71875 7.34375-11 7.34375-17.6875 0-13.648438-11-24.78125-24.601562-24.996094-.460938-1.203125-.953125-2.394531-1.476563-3.566406 4.539063-4.6875 7.035156-10.847656 7.035156-17.398438 0-6.679687-2.597656-12.960937-7.316406-17.679687-9.65625-9.65625-25.308594-9.75-35.078125-.28125-1.175781-.523437-2.363281-1.019531-3.566406-1.476563-.101563-6.539062-2.699219-12.664062-7.3125-17.257812-4.71875-4.734375-10.996094-7.34375-17.683594-7.34375-2.300781 0-4.542969.3125-6.695312.90625-5.683594-7.101562-14.414063-11.523438-23.925781-11.523438h-2.070313c-1.132813-3.230468-2.441406-6.386718-3.917969-9.453124l1.476563-1.472657c5.011719-5.023437 8.015625-11.597656 8.75-18.457031h144.871093c.601563 0 1.089844.484375 1.089844 1.082031v217.839844c0 .59375-.488281 1.078125-1.089844 1.078125h-282.402343c-5.523438 0-10 4.476562-10 10s4.476562 10 10 10h282.402343c11.628907 0 21.089844-9.457031 21.089844-21.078125v-217.84375c0-11.621094-9.460937-21.078125-21.089844-21.078125h-149.683593c-1.144531-1.734375-2.457031-3.363281-3.960938-4.867188-11.9375-11.921874-31.363281-11.921874-43.3125.011719l-1.460937 1.464844c-3.066406-1.476563-6.222656-2.785156-9.453125-3.917969v-2.070312c0-3.683594-.652344-7.265625-1.890625-10.621094h230.351562c12.179688 0 22.089844 9.90625 22.089844 22.078125v277.921875h-472v-277.921875c0-12.171875 9.90625-22.078125 22.078125-22.078125zm291.816406 451h-156.125l9.566407-71h136.992187zm136.015625-91h-427.832031c-12.171875 0-22.078125-9.90625-22.078125-22.078125v-17.921875h472v17.921875c0 12.171875-9.910156 22.078125-22.089844 22.078125zm0 0" data-original="#000000" class="active-path" data-old_color="#000000" fill="#69D196"/></g> </svg>
